<?xml version="1.0" encoding="UTF-8" standalone="no"?><!DOCTYPE svg PUBLIC "-//W3C//DTD SVG 1.1//EN" "http://www.w3.org/Graphics/SVG/1.1/DTD/svg11.dtd"><svg width="100%" height="100%" viewBox="0 0 40 40" version="1.1" xmlns="http://www.w3.org/2000/svg" xmlns:xlink="http://www.w3.org/1999/xlink" xml:space="preserve" xmlns:serif="http://www.serif.com/" style="fill-rule:evenodd;clip-rule:evenodd;stroke-linejoin:round;stroke-miterlimit:2;"><rect id="Artboard1" x="0" y="0" width="40" height="40" style="fill:none;"/><g id="Artboard11" serif:id="Artboard1"><g><path d="M21.488,8.106l18.512,0c0,5.659 -4.148,10.252 -9.256,10.252c-5.109,0 -9.256,-4.593 -9.256,-10.252Z" style="fill:#e74e0f;"/><path d="M36.307,29.518c0.149,0.569 0.025,1.174 -0.334,1.639c-0.359,0.465 -0.913,0.737 -1.501,0.737c-2.162,-0 -5.294,-0 -7.457,-0c-0.587,-0 -1.141,-0.272 -1.501,-0.737c-0.359,-0.465 -0.482,-1.07 -0.334,-1.639c0.629,-2.41 1.582,-6.061 2.102,-8.053c0.218,-0.835 0.972,-1.418 1.835,-1.418c0.982,0 2.271,0 3.253,0c0.863,0 1.618,0.583 1.836,1.418c0.519,1.992 1.472,5.643 2.101,8.053Z" style="fill:#e74e0f;"/></g><g><path d="M14.82,29.518c0.148,0.569 0.025,1.174 -0.334,1.639c-0.36,0.465 -0.914,0.737 -1.501,0.737c-2.163,-0 -5.295,-0 -7.457,-0c-0.588,-0 -1.142,-0.272 -1.501,-0.737c-0.359,-0.465 -0.483,-1.07 -0.334,-1.639c0.629,-2.41 1.582,-6.061 2.101,-8.053c0.218,-0.835 0.973,-1.418 1.836,-1.418c0.982,0 2.271,0 3.253,0c0.863,0 1.617,0.583 1.835,1.418c0.52,1.992 1.473,5.643 2.102,8.053Z" style="fill:#19295c;"/><path d="M0,8.106l18.512,0c0,5.659 -4.147,10.252 -9.256,10.252c-5.108,0 -9.256,-4.593 -9.256,-10.252Z" style="fill:#19295c;"/></g></g></svg>