<?xml version="1.0" encoding="UTF-8" standalone="no"?><!DOCTYPE svg PUBLIC "-//W3C//DTD SVG 1.1//EN" "http://www.w3.org/Graphics/SVG/1.1/DTD/svg11.dtd"><svg width="100%" height="100%" viewBox="0 0 40 40" version="1.1" xmlns="http://www.w3.org/2000/svg" xmlns:xlink="http://www.w3.org/1999/xlink" xml:space="preserve" xmlns:serif="http://www.serif.com/" style="fill-rule:evenodd;clip-rule:evenodd;stroke-linejoin:round;stroke-miterlimit:2;"><rect id="Artboard1" x="0" y="0" width="40" height="40" style="fill:none;"/><g id="Artboard11" serif:id="Artboard1"><g><path d="M20,29.653c-2.101,1.682 -4.767,2.683 -7.664,2.683c-6.808,-0 -12.336,-5.528 -12.336,-12.336c0,-6.808 5.528,-12.336 12.336,-12.336c2.897,0 5.563,1.001 7.664,2.683c-2.848,2.254 -4.672,5.742 -4.672,9.653c0,3.911 1.824,7.399 4.672,9.653Z" style="fill:#19295c;"/><path d="M20,10.347c2.101,-1.682 4.767,-2.683 7.664,-2.683c6.808,0 12.336,5.528 12.336,12.336c0,6.808 -5.528,12.336 -12.336,12.336c-2.897,-0 -5.563,-1.001 -7.664,-2.683c2.848,-2.254 4.672,-5.742 4.672,-9.653c-0,-3.911 -1.824,-7.399 -4.672,-9.653Z" style="fill:#19295c;"/><path d="M20,10.347c2.848,2.254 4.672,5.742 4.672,9.653c-0,3.911 -1.824,7.399 -4.672,9.653c-2.848,-2.254 -4.672,-5.742 -4.672,-9.653c0,-3.911 1.824,-7.399 4.672,-9.653Z" style="fill:#e74e0f;"/></g></g><g><path d="M13.944,65.173c1.155,1.155 1.155,3.031 0,4.186c-1.155,1.155 -3.03,1.155 -4.186,0c-1.155,-1.155 -1.155,-3.031 0,-4.186c1.156,-1.155 3.031,-1.155 4.186,0Z" style="fill:#e74e0f;"/></g></svg>