<?xml version="1.0" encoding="UTF-8" standalone="no"?><!DOCTYPE svg PUBLIC "-//W3C//DTD SVG 1.1//EN" "http://www.w3.org/Graphics/SVG/1.1/DTD/svg11.dtd"><svg width="100%" height="100%" viewBox="0 0 40 40" version="1.1" xmlns="http://www.w3.org/2000/svg" xmlns:xlink="http://www.w3.org/1999/xlink" xml:space="preserve" xmlns:serif="http://www.serif.com/" style="fill-rule:evenodd;clip-rule:evenodd;stroke-linejoin:round;stroke-miterlimit:2;"><rect id="Artboard1" x="0" y="0" width="40" height="40" style="fill:none;"/><clipPath id="_clip1"><rect id="Artboard11" serif:id="Artboard1" x="0" y="0" width="40" height="40"/></clipPath><g clip-path="url(#_clip1)"><g><g><path d="M23.591,7.216l-0,-7.216l-7.217,-0l0,7.216l7.217,0Z" style="fill:#19295c;"/><rect x="32.784" y="16.409" width="7.216" height="7.216" style="fill:#19295c;"/><path d="M23.591,32.783l-0,7.217l-7.217,-0l0,-7.217l7.217,0Z" style="fill:#19295c;"/><rect x="0" y="16.409" width="7.216" height="7.216" style="fill:#19295c;"/></g><path d="M22.539,17.496c1.402,1.402 1.402,3.677 0,5.079c-1.401,1.401 -3.677,1.401 -5.078,-0c-1.402,-1.402 -1.402,-3.677 -0,-5.079c1.401,-1.401 3.677,-1.401 5.078,0Z" style="fill:#e74e0f;"/></g></g></svg>