<svg width="349" height="66" viewBox="0 0 349 66" fill="none" xmlns="http://www.w3.org/2000/svg">
<path d="M104.3 30.89C102.46 29.96 100.32 29.41 97.87 29.24C95.25 29.07 93.15 28.67 91.58 28.03C89.52 27.17 88.49 25.93 88.49 24.32C88.49 21.87 89.78 20.14 92.35 19.14C93.16 18.82 94 18.6 94.89 18.48C95.23 18.43 95.65 18.39 96.14 18.37C98.79 18.37 101.01 19.29 102.79 21.13C103.33 21.72 103.81 22.37 104.22 23.08L104.73 24.07L109.99 22.08L109.22 20.46C108.56 19.28 107.77 18.22 106.87 17.26C104.03 14.25 100.49 12.74 96.24 12.74C92.64 12.74 89.57 13.72 87.05 15.68C84.26 17.86 82.86 20.74 82.86 24.32C82.86 25.4 83.02 26.42 83.34 27.37C83.76 28.6 84.44 29.69 85.4 30.64C87.83 33.09 91.86 34.5 97.5 34.87C100.32 35.04 102.34 35.85 103.57 37.3C104.31 38.13 104.64 39.1 104.56 40.2C104.36 42.41 103.3 43.98 101.36 44.91C100.68 45.23 99.9 45.46 99.04 45.61C98.7 45.66 98.37 45.7 98.07 45.72C97.76 45.75 97.49 45.76 97.24 45.76C95.18 45.74 93.37 45.3 91.8 44.44C89.94 43.39 88.71 41.87 88.12 39.88L82.72 41.42C83.7 44.78 85.71 47.35 88.75 49.14C91.27 50.61 94.09 51.36 97.21 51.38H97.25C100.56 51.38 103.39 50.51 105.74 48.77C108.41 46.84 109.88 44.13 110.15 40.64C110.37 37.99 109.6 35.65 107.83 33.62C106.87 32.51 105.69 31.6 104.3 30.89Z" fill="white"/>
<path d="M161.28 28.24C161.28 25.52 162.25 23.19 164.18 21.25C166.11 19.32 168.44 18.35 171.17 18.35C173.89 18.35 176.21 19.32 178.12 21.25C180.05 23.19 181.02 25.51 181.02 28.24V50.85H186.65V28.24C186.65 23.95 185.13 20.3 182.09 17.28C179.08 14.24 175.44 12.72 171.17 12.72C167.44 12.72 164.15 13.91 161.28 16.29V13.2H155.65V50.85H161.28V28.24V28.24Z" fill="white"/>
<path d="M213.9 51.37C217.63 51.37 221.06 50.38 224.19 48.39C227.23 46.46 229.56 43.87 231.18 40.63L226 38.39C224.85 40.62 223.21 42.39 221.07 43.68C218.86 45.05 216.47 45.74 213.9 45.74C210.32 45.74 207.23 44.53 204.63 42.1C202.01 39.67 200.55 36.71 200.25 33.2H233.16L233.2 32.02C233.2 26.7 231.31 22.16 227.54 18.38C223.77 14.61 219.22 12.72 213.9 12.72C208.58 12.72 204.03 14.61 200.26 18.38C196.46 22.16 194.56 26.7 194.56 32.02C194.56 37.36 196.46 41.92 200.26 45.7C204.03 49.48 208.58 51.37 213.9 51.37ZM205.88 20.96C208.26 19.22 210.93 18.35 213.9 18.35C216.84 18.35 219.51 19.22 221.92 20.96C224.25 22.65 225.88 24.86 226.81 27.58H200.96C201.91 24.86 203.55 22.65 205.88 20.96Z" fill="white"/>
<path d="M253.35 50.8499V45.2199C251.51 45.2199 249.94 44.5699 248.64 43.2699C247.37 41.9699 246.73 40.3999 246.73 38.5599V18.7399H253.35V13.1099H246.73V6.41992H241.1V38.5499C241.1 41.9299 242.29 44.8299 244.67 47.2299C247.07 49.6599 249.96 50.8499 253.35 50.8499Z" fill="white"/>
<path d="M277.43 51.37C281.16 51.37 284.59 50.38 287.72 48.39C290.76 46.46 293.09 43.87 294.71 40.63L289.53 38.39C288.38 40.62 286.74 42.39 284.6 43.68C282.39 45.05 280 45.74 277.43 45.74C273.85 45.74 270.76 44.53 268.16 42.1C265.54 39.67 264.08 36.71 263.78 33.2H296.69L296.73 32.02C296.73 26.7 294.84 22.16 291.07 18.38C287.3 14.61 282.75 12.72 277.43 12.72C272.11 12.72 267.56 14.61 263.79 18.38C259.99 22.16 258.09 26.7 258.09 32.02C258.09 37.36 259.99 41.92 263.79 45.7C267.56 49.48 272.11 51.37 277.43 51.37ZM269.41 20.96C271.79 19.22 274.46 18.35 277.43 18.35C280.37 18.35 283.04 19.22 285.45 20.96C287.78 22.65 289.41 24.86 290.34 27.58H264.49C265.44 24.86 267.08 22.65 269.41 20.96Z" fill="white"/>
<path d="M329.38 43.69C327.17 45.06 324.78 45.75 322.21 45.75C318.44 45.75 315.21 44.41 312.54 41.74C309.84 39.04 308.5 35.81 308.5 32.03C308.5 28.26 309.85 25.03 312.54 22.36C315.21 19.69 318.44 18.35 322.21 18.35C324.78 18.35 327.17 19.03 329.38 20.37C331.51 21.69 333.15 23.46 334.31 25.66L339.49 23.42C337.87 20.21 335.54 17.64 332.5 15.7C329.36 13.71 325.93 12.72 322.21 12.72C316.89 12.72 312.33 14.61 308.53 18.38C304.76 22.16 302.87 26.7 302.87 32.02C302.87 37.36 304.76 41.92 308.53 45.7C312.33 49.48 316.89 51.36 322.21 51.36C325.94 51.36 329.37 50.37 332.5 48.38C335.54 46.45 337.87 43.86 339.49 40.62L334.31 38.38C333.15 40.62 331.51 42.39 329.38 43.69Z" fill="white"/>
<path d="M129.96 59.6099L148.75 13.1699H142.64L131.61 40.4099L120.58 13.1699H114.48L128.56 47.9899L121.54 65.2699H127.67L129.96 59.6099Z" fill="white"/>
<path d="M56.9701 60.78H52.8201V65.27H56.9701V60.78Z" fill="white"/>
<path d="M0.86998 0.52002V3.78003H0.859985V65.27H2.03998H48.66V60.78H5.34999V5.01004H61.13V65.27H65.61V5.01004V2.39005V0.52002H0.86998Z" fill="#E74E0F"/>
<path d="M33.5 48.2101C31.03 48.1901 28.8 47.6001 26.8 46.4301C24.39 45.0101 22.8 42.9701 22.02 40.3101L26.3 39.0901C26.77 40.6601 27.74 41.8701 29.21 42.7001C30.45 43.3801 31.89 43.7301 33.52 43.7501C33.71 43.7501 33.93 43.7401 34.18 43.7201C34.42 43.7001 34.68 43.6701 34.95 43.6301C35.63 43.5101 36.24 43.3301 36.79 43.0801C38.32 42.3401 39.17 41.1001 39.32 39.3501C39.38 38.4801 39.12 37.7101 38.53 37.0501C37.56 35.9001 35.96 35.2601 33.72 35.1301C29.25 34.8401 26.06 33.7201 24.14 31.7801C23.38 31.0201 22.84 30.1601 22.51 29.1901C22.26 28.4301 22.13 27.6301 22.13 26.7701C22.13 23.9401 23.24 21.6501 25.45 19.9201C27.45 18.3701 29.88 17.5901 32.73 17.5901C36.09 17.5901 38.89 18.7801 41.15 21.1701C41.87 21.9301 42.49 22.7701 43.01 23.7001L43.62 24.9801L39.45 26.5501L39.04 25.7601C38.71 25.2001 38.33 24.6801 37.9 24.2201C36.48 22.7601 34.72 22.0401 32.63 22.0401C32.24 22.0601 31.91 22.0901 31.64 22.1301C30.94 22.2301 30.27 22.4001 29.63 22.6501C27.59 23.4501 26.57 24.8201 26.57 26.7601C26.57 28.0401 27.39 29.0201 29.02 29.7001C30.26 30.2101 31.92 30.5301 34 30.6601C35.94 30.8001 37.64 31.2301 39.1 31.9701C40.21 32.5301 41.14 33.2501 41.9 34.1301C43.3 35.7401 43.91 37.6001 43.74 39.6901C43.53 42.4501 42.36 44.5901 40.24 46.1301C38.38 47.5101 36.13 48.2001 33.51 48.2001H33.5V48.2101Z" fill="white"/>
<path d="M348.88 46.3701H344.73V50.8601H348.88V46.3701Z" fill="#E74E0F"/>
</svg>
